<svg xmlns="http://www.w3.org/2000/svg" viewBox="0 0 512 512" role="img" aria-labelledby="title desc">
  <title id="title">makeslide app icon</title>
  <desc id="desc">Rounded square gradient background with a play button and slide lines.</desc>
  <defs>
    <linearGradient id="bg" x1="0" y1="0" x2="1" y2="1">
      <stop offset="0%" stop-color="#0f172a"/>
      <stop offset="100%" stop-color="#1e293b"/>
    </linearGradient>
    <linearGradient id="accent" x1="0" y1="0" x2="1" y2="1">
      <stop offset="0%" stop-color="#22d3ee"/>
      <stop offset="100%" stop-color="#6366f1"/>
    </linearGradient>
  </defs>
  <rect x="24" y="24" width="464" height="464" rx="104" fill="url(#bg)"/>
  <rect x="86" y="124" width="340" height="264" rx="34" fill="#020617" stroke="#334155" stroke-width="10"/>
  <rect x="234" y="180" width="18" height="152" rx="9" fill="#1e293b"/>
  <path d="M175 205c0-12 13-20 24-14l88 51c11 6 11 22 0 28l-88 51c-11 6-24-2-24-14V205z" fill="url(#accent)"/>
  <rect x="278" y="196" width="112" height="12" rx="6" fill="#334155"/>
  <rect x="278" y="230" width="94" height="12" rx="6" fill="#334155"/>
  <rect x="278" y="264" width="112" height="12" rx="6" fill="#334155"/>
  <rect x="278" y="298" width="74" height="12" rx="6" fill="#334155"/>
</svg>
